<?xml version="1.0" encoding="UTF-8"?>
<svg id="Layer_2" data-name="Layer 2" xmlns="http://www.w3.org/2000/svg" viewBox="0 0 708.56 238.14">
  <defs>
    <style>
      .cls-1 {
        fill: #393b3e;
      }

      .cls-1, .cls-2, .cls-3, .cls-4, .cls-5, .cls-6 {
        stroke-width: 0px;
      }

      .cls-2 {
        fill: #303336;
      }

      .cls-4 {
        fill: #23272b;
      }

      .cls-5 {
        fill: #2de27f;
      }

      .cls-6 {
        fill: #090c10;
      }
    </style>
  </defs>
  <g id="Final">
    <g id="Button">
      <polygon class="cls-3" points="696.07 225.52 696.07 238.14 8.32 237.94 8.32 225.32 0 225.32 0 13.31 9.36 13.31 9.36 0 696.07 .2 696.07 12.3 708.56 12.3 708.56 225.52 696.07 225.52"/>
      <polygon class="cls-6" points="684.3 197.14 23.26 196.94 24.26 25.94 684.3 25.14 684.3 197.14"/>
      <rect class="cls-4" x="35.26" y="197.04" width="637.04" height="10"/>
      <polygon class="cls-1" points="684.3 25.14 24.26 25.94 24.26 14.94 684.3 15.14 684.3 25.14"/>
      <polygon class="cls-2" points="15.26 25.94 34.26 25.94 34.26 36.94 24.26 36.94 23.26 182.94 15.26 182.94 15.26 25.94"/>
      <polygon class="cls-3" points="23.26 206.94 15.26 206.94 15.26 182.94 23.26 182.94 23.26 196.94 35.26 196.94 35.26 206.94 672.3 207.14 672.3 197.14 684.3 197.14 684.3 183.14 696.3 183.14 696.3 207.14 684.3 207.14 684.3 224.14 36.26 223.94 23.26 223.94 23.26 206.94"/>
      <polygon class="cls-2" points="696.3 25.14 672.3 25.14 672.3 37.14 684.3 37.14 684.3 183.14 696.3 183.14 696.3 25.14"/>
    </g>
    <g>
      <path class="cls-5" d="M126.94,85.76h3.82v11.47h-3.82v3.82h-3.82v3.82h-3.82v3.82h3.82v3.82h3.82v3.82h3.82v15.29h-3.82v3.82h-7.65v-3.82h-3.82v-3.82h-3.82v-3.82h-3.82v-3.82h-3.82v11.47h-3.82v3.82h-19.12v-3.82h-3.82v-45.88h3.82v7.65h3.82v-3.82h3.82v-3.82h-7.65v-3.82h19.12v3.82h3.82v11.47h3.82v-3.82h3.82v-3.82h3.82v-3.82h3.82v-3.82h7.65v3.82Z"/>
      <path class="cls-5" d="M157.53,93.41h3.82v38.24h-3.82v3.82h-15.29v-3.82h-3.82v-38.24h3.82v7.65h3.82v-3.82h3.82v-3.82h-7.65v-3.82h15.29v3.82Z"/>
      <path class="cls-5" d="M211.06,93.41h3.82v3.82h-3.82v3.82h-19.12v19.12h19.12v3.82h3.82v7.65h-3.82v3.82h-34.41v-3.82h-3.82v-3.82h-3.82v-30.59h3.82v3.82h3.82v-3.82h3.82v-3.82h-3.82v-3.82h34.41v3.82Z"/>
      <path class="cls-5" d="M264.59,93.41h3.82v7.65h-3.82v3.82h-3.82v3.82h-3.82v3.82h3.82v3.82h3.82v3.82h3.82v11.47h-3.82v3.82h-7.65v-3.82h-3.82v-3.82h-3.82v-3.82h-3.82v7.65h-3.82v3.82h-15.29v-3.82h-3.82v-38.24h3.82v7.65h3.82v-3.82h3.82v-3.82h-7.65v-3.82h15.29v3.82h3.82v7.65h3.82v-3.82h3.82v-3.82h3.82v-3.82h7.65v3.82Z"/>
      <path class="cls-5" d="M318.12,93.41h3.82v3.82h-3.82v3.82h-19.12v3.82h19.12v3.82h3.82v19.12h-3.82v3.82h-3.82v3.82h-34.41v-3.82h-3.82v-11.47h3.82v-3.82h26.76v-3.82h-26.76v-3.82h-3.82v-11.47h3.82v3.82h3.82v-3.82h3.82v-3.82h-3.82v-3.82h34.41v3.82Z"/>
      <path class="cls-5" d="M333.41,101.05h-3.82v-7.65h3.82v7.65ZM371.64,93.41h3.82v7.65h-3.82v3.82h-7.65v26.76h-3.82v3.82h-15.29v-3.82h-3.82v-26.76h-7.65v-3.82h3.82v-3.82h3.82v-3.82h-7.65v-3.82h38.24v3.82Z"/>
      <path class="cls-5" d="M425.17,97.23h3.82v34.41h-3.82v3.82h-3.82v-3.82h-3.82v-15.29h-11.47v15.29h-3.82v3.82h-15.29v-3.82h-3.82v-34.41h3.82v3.82h3.82v-3.82h3.82v-3.82h-3.82v-3.82h30.59v3.82h3.82v3.82ZM417.53,101.05h-11.47v3.82h11.47v-3.82Z"/>
      <path class="cls-5" d="M478.7,97.23h3.82v11.47h-3.82v3.82h-3.82v3.82h3.82v3.82h3.82v11.47h-3.82v3.82h-3.82v-3.82h-3.82v-3.82h-3.82v-3.82h-3.82v-3.82h-3.82v11.47h-3.82v3.82h-15.29v-3.82h-3.82v-38.24h3.82v7.65h3.82v-3.82h3.82v-3.82h-7.65v-3.82h34.41v3.82h3.82v3.82ZM471.05,104.88v-3.82h-11.47v3.82h11.47Z"/>
      <path class="cls-5" d="M494,101.05h-3.82v-7.65h3.82v7.65ZM532.23,93.41h3.82v7.65h-3.82v3.82h-7.65v26.76h-3.82v3.82h-15.29v-3.82h-3.82v-26.76h-7.65v-3.82h3.82v-3.82h3.82v-3.82h-7.65v-3.82h38.23v3.82Z"/>
      <path class="cls-5" d="M585.76,93.41h3.82v3.82h-3.82v3.82h-19.12v3.82h19.12v3.82h3.82v3.82h-3.82v3.82h-19.12v3.82h19.12v3.82h3.82v7.65h-3.82v3.82h-38.23v-3.82h-3.82v-38.24h3.82v7.65h3.82v-3.82h3.82v-3.82h-7.65v-3.82h38.23v3.82Z"/>
      <path class="cls-5" d="M639.29,97.23h3.82v11.47h-3.82v3.82h-3.82v3.82h3.82v3.82h3.82v11.47h-3.82v3.82h-3.82v-3.82h-3.82v-3.82h-3.82v-3.82h-3.82v-3.82h-3.82v11.47h-3.82v3.82h-15.29v-3.82h-3.82v-38.24h3.82v7.65h3.82v-3.82h3.82v-3.82h-7.65v-3.82h34.41v3.82h3.82v3.82ZM631.64,104.88v-3.82h-11.47v3.82h11.47Z"/>
    </g>
  </g>
</svg>