<?xml version="1.0" encoding="UTF-8"?>
<svg id="Layer_2" data-name="Layer 2" xmlns="http://www.w3.org/2000/svg" viewBox="0 0 1249.52 252.89">
  <defs>
    <style>
      .cls-1, .cls-2, .cls-3, .cls-4, .cls-5, .cls-6 {
        stroke-width: 0px;
      }

      .cls-2 {
        fill: #e4682a;
      }

      .cls-3 {
        fill: #912c26;
      }

      .cls-4 {
        fill: #e48e35;
      }

      .cls-5 {
        fill: #f2dba7;
      }

      .cls-6 {
        fill: #e8ac3f;
      }

      .cls-7 {
        stroke: #000;
        stroke-miterlimit: 10;
        stroke-width: 6px;
      }
    </style>
  </defs>
  <g id="Final">
    <g id="Button">
      <polygon class="cls-1" points="1237.04 232.32 1237.04 252.89 8.32 252.89 8.32 232.32 0 232.32 0 13.31 9.36 13.31 9.36 0 1237.04 0 1237.04 12.1 1249.52 12.1 1249.52 232.32 1237.04 232.32"/>
      <polygon class="cls-2" points="1213.26 203.94 32.26 203.94 33.26 32.94 1213.26 31.94 1213.26 203.94"/>
      <rect class="cls-4" x="44.26" y="203.94" width="1157" height="10"/>
      <polygon class="cls-6" points="1213.26 31.94 33.26 32.94 33.26 21.94 1213.26 21.94 1213.26 31.94"/>
      <polygon class="cls-4" points="24.26 32.94 43.26 32.94 43.26 43.94 33.26 43.94 32.26 189.94 24.26 189.94 24.26 32.94"/>
      <polygon class="cls-3" points="32.26 213.94 24.26 213.94 24.26 189.94 32.26 189.94 32.26 203.94 44.26 203.94 44.26 213.94 1201.26 213.94 1201.26 203.94 1213.26 203.94 1213.26 189.94 1225.26 189.94 1225.26 213.94 1213.26 213.94 1213.26 230.94 45.26 230.94 32.26 230.94 32.26 213.94"/>
      <polygon class="cls-4" points="1225.26 31.94 1201.26 31.94 1201.26 43.94 1213.26 43.94 1213.26 189.94 1225.26 189.94 1225.26 31.94"/>
    </g>
    <g id="Text">
      <g>
        <path class="cls-7" d="M161.81,97.06h4.41v52.94h-4.41v4.41h-13.24v-4.41h-4.41v-4.41h-4.41v-4.41h-4.41v4.41h-4.41v4.41h-4.41v4.41h-22.06v-4.41h-4.41v-52.94h4.41v8.82h4.41v-4.41h4.41v-4.41h-8.82v-4.41h22.06v4.41h4.41v26.47h4.41v-4.41h4.41v4.41h4.41v-26.47h4.41v-4.41h13.24v4.41Z"/>
        <path class="cls-7" d="M201.52,97.06h4.41v52.94h-4.41v4.41h-22.06v-4.41h-4.41v-52.94h4.41v8.82h4.41v-4.41h4.41v-4.41h-8.82v-4.41h22.06v4.41Z"/>
        <path class="cls-7" d="M272.11,97.06h4.41v8.82h-4.41v4.41h-26.47v4.41h26.47v4.41h4.41v26.47h-4.41v4.41h-4.41v4.41h-48.53v-4.41h-4.41v-13.24h4.41v-4.41h35.29v-4.41h-35.29v-4.41h-4.41v-22.06h4.41v4.41h4.41v-4.41h4.41v-4.41h-4.41v-4.41h48.53v4.41Z"/>
        <path class="cls-7" d="M347.11,97.06v52.94h-4.41v4.41h-13.24v-4.41h-4.41v-22.06h-8.82v22.06h-4.41v4.41h-22.06v-4.41h-4.41v-52.94h4.41v8.82h4.41v-4.41h4.41v-4.41h-8.82v-4.41h22.06v4.41h4.41v17.65h8.82v-17.65h4.41v-4.41h13.24v4.41h4.41Z"/>
        <path class="cls-7" d="M408.87,141.17h4.41v8.82h-4.41v4.41h-48.53v-4.41h-4.41v-52.94h4.41v8.82h4.41v-4.41h4.41v-4.41h-8.82v-4.41h22.06v4.41h4.41v39.71h22.06v4.41Z"/>
        <path class="cls-7" d="M448.57,97.06h4.41v52.94h-4.41v4.41h-22.06v-4.41h-4.41v-52.94h4.41v8.82h4.41v-4.41h4.41v-4.41h-8.82v-4.41h22.06v4.41Z"/>
        <path class="cls-7" d="M519.16,97.06h4.41v8.82h-4.41v4.41h-26.47v4.41h26.47v4.41h4.41v26.47h-4.41v4.41h-4.41v4.41h-48.53v-4.41h-4.41v-13.24h4.41v-4.41h35.29v-4.41h-35.29v-4.41h-4.41v-22.06h4.41v4.41h4.41v-4.41h4.41v-4.41h-4.41v-4.41h48.53v4.41Z"/>
        <path class="cls-7" d="M536.81,105.88h-4.41v-8.82h4.41v8.82ZM589.75,97.06h4.41v8.82h-4.41v4.41h-13.24v39.71h-4.41v4.41h-17.65v-4.41h-4.41v-39.71h-13.24v-4.41h4.41v-4.41h4.41v-4.41h-8.82v-4.41h52.94v4.41Z"/>
        <path class="cls-7" d="M689.1,101.47h4.41v44.12h-4.41v4.41h-4.41v4.41h-44.12v-4.41h-4.41v-4.41h-4.41v-44.12h4.41v4.41h4.41v-4.41h4.41v-4.41h-4.41v-4.41h44.12v4.41h4.41v4.41ZM675.87,136.76v-30.88h-13.24v30.88h13.24Z"/>
        <path class="cls-7" d="M759.69,97.06h4.41v52.94h-4.41v4.41h-13.24v-4.41h-4.41v-13.24h-4.41v-4.41h-4.41v17.65h-4.41v4.41h-22.06v-4.41h-4.41v-52.94h4.41v8.82h4.41v-4.41h4.41v-4.41h-8.82v-4.41h22.06v4.41h4.41v17.65h4.41v4.41h4.41v-22.06h4.41v-4.41h13.24v4.41Z"/>
        <path class="cls-7" d="M868.04,94.06h4.41v8.82h-4.41v4.41h-26.47v4.41h26.47v4.41h4.41v26.47h-4.41v4.41h-4.41v4.41h-48.53v-4.41h-4.41v-13.24h4.41v-4.41h35.29v-4.41h-35.29v-4.41h-4.41v-22.06h4.41v4.41h4.41v-4.41h4.41v-4.41h-4.41v-4.41h48.53v4.41Z"/>
        <path class="cls-7" d="M885.68,102.88h-4.41v-8.82h4.41v8.82ZM938.63,94.06h4.41v8.82h-4.41v4.41h-13.24v39.71h-4.41v4.41h-17.65v-4.41h-4.41v-39.71h-13.24v-4.41h4.41v-4.41h4.41v-4.41h-8.82v-4.41h52.94v4.41Z"/>
        <path class="cls-7" d="M1009.21,94.06h4.41v4.41h-4.41v4.41h-26.47v8.82h26.47v4.41h4.41v4.41h-4.41v4.41h-26.47v8.82h26.47v4.41h4.41v8.82h-4.41v4.41h-52.94v-4.41h-4.41v-52.94h4.41v8.82h4.41v-4.41h4.41v-4.41h-8.82v-4.41h52.94v4.41Z"/>
        <path class="cls-7" d="M1079.8,102.88h4.41v44.12h-4.41v4.41h-8.82v-4.41h-4.41v-26.47h-13.24v26.47h-4.41v4.41h-22.06v-4.41h-4.41v-48.53h4.41v4.41h4.41v-4.41h4.41v-4.41h-4.41v-4.41h39.71v4.41h4.41v4.41h4.41v4.41ZM1053.33,111.7h13.24v-8.82h-13.24v8.82Z"/>
        <path class="cls-7" d="M1154.8,94.06h4.41v52.94h-4.41v4.41h-13.24v-4.41h-4.41v-13.24h-4.41v4.41h-4.41v-4.41h-4.41v13.24h-4.41v4.41h-22.06v-4.41h-4.41v-52.94h4.41v8.82h4.41v-4.41h4.41v-4.41h-8.82v-4.41h22.06v4.41h4.41v17.65h4.41v4.41h4.41v-4.41h4.41v-17.65h4.41v-4.41h13.24v4.41Z"/>
      </g>
      <path class="cls-5" d="M159.23,92.65h3.97v47.65h-3.97v3.97h-11.91v-3.97h-3.97v-3.97h-3.97v-3.97h-3.97v3.97h-3.97v3.97h-3.97v3.97h-19.85v-3.97h-3.97v-47.65h3.97v7.94h3.97v-3.97h3.97v-3.97h-7.94v-3.97h19.85v3.97h3.97v23.82h3.97v-3.97h3.97v3.97h3.97v-23.82h3.97v-3.97h11.91v3.97Z"/>
      <path class="cls-5" d="M200.7,92.65h3.97v47.65h-3.97v3.97h-19.85v-3.97h-3.97v-47.65h3.97v7.94h3.97v-3.97h3.97v-3.97h-7.94v-3.97h19.85v3.97Z"/>
      <path class="cls-5" d="M269.74,92.65h3.97v7.94h-3.97v3.97h-23.82v3.97h23.82v3.97h3.97v23.82h-3.97v3.97h-3.97v3.97h-43.68v-3.97h-3.97v-11.91h3.97v-3.97h31.76v-3.97h-31.76v-3.97h-3.97v-19.85h3.97v3.97h3.97v-3.97h3.97v-3.97h-3.97v-3.97h43.68v3.97Z"/>
      <path class="cls-5" d="M344.3,92.65v47.65h-3.97v3.97h-11.91v-3.97h-3.97v-19.85h-7.94v19.85h-3.97v3.97h-19.85v-3.97h-3.97v-47.65h3.97v7.94h3.97v-3.97h3.97v-3.97h-7.94v-3.97h19.85v3.97h3.97v15.88h7.94v-15.88h3.97v-3.97h11.91v3.97h3.97Z"/>
      <path class="cls-5" d="M406.73,132.35h3.97v7.94h-3.97v3.97h-43.68v-3.97h-3.97v-47.65h3.97v7.94h3.97v-3.97h3.97v-3.97h-7.94v-3.97h19.85v3.97h3.97v35.74h19.85v3.97Z"/>
      <path class="cls-5" d="M447.75,92.65h3.97v47.65h-3.97v3.97h-19.85v-3.97h-3.97v-47.65h3.97v7.94h3.97v-3.97h3.97v-3.97h-7.94v-3.97h19.85v3.97Z"/>
      <path class="cls-5" d="M516.8,92.65h3.97v7.94h-3.97v3.97h-23.82v3.97h23.82v3.97h3.97v23.82h-3.97v3.97h-3.97v3.97h-43.68v-3.97h-3.97v-11.91h3.97v-3.97h31.76v-3.97h-31.76v-3.97h-3.97v-19.85h3.97v3.97h3.97v-3.97h3.97v-3.97h-3.97v-3.97h43.68v3.97Z"/>
      <path class="cls-5" d="M539.74,100.59h-3.97v-7.94h3.97v7.94ZM587.38,92.65h3.97v7.94h-3.97v3.97h-11.91v35.74h-3.97v3.97h-15.88v-3.97h-3.97v-35.74h-11.91v-3.97h3.97v-3.97h3.97v-3.97h-7.94v-3.97h47.65v3.97Z"/>
      <path class="cls-5" d="M686.74,96.62h3.97v39.71h-3.97v3.97h-3.97v3.97h-39.71v-3.97h-3.97v-3.97h-3.97v-39.71h3.97v3.97h3.97v-3.97h3.97v-3.97h-3.97v-3.97h39.71v3.97h3.97v3.97ZM674.82,128.38v-27.79h-11.91v27.79h11.91Z"/>
      <path class="cls-5" d="M757.32,92.65h3.97v47.65h-3.97v3.97h-11.91v-3.97h-3.97v-11.91h-3.97v-3.97h-3.97v15.88h-3.97v3.97h-19.85v-3.97h-3.97v-47.65h3.97v7.94h3.97v-3.97h3.97v-3.97h-7.94v-3.97h19.85v3.97h3.97v15.88h3.97v3.97h3.97v-19.85h3.97v-3.97h11.91v3.97Z"/>
      <path class="cls-5" d="M865.67,89.65h3.97v7.94h-3.97v3.97h-23.82v3.97h23.82v3.97h3.97v23.82h-3.97v3.97h-3.97v3.97h-43.68v-3.97h-3.97v-11.91h3.97v-3.97h31.76v-3.97h-31.76v-3.97h-3.97v-19.85h3.97v3.97h3.97v-3.97h3.97v-3.97h-3.97v-3.97h43.68v3.97Z"/>
      <path class="cls-5" d="M888.61,97.59h-3.97v-7.94h3.97v7.94ZM936.26,89.65h3.97v7.94h-3.97v3.97h-11.91v35.74h-3.97v3.97h-15.88v-3.97h-3.97v-35.74h-11.91v-3.97h3.97v-3.97h3.97v-3.97h-7.94v-3.97h47.65v3.97Z"/>
      <path class="cls-5" d="M1006.85,89.65h3.97v3.97h-3.97v3.97h-23.82v7.94h23.82v3.97h3.97v3.97h-3.97v3.97h-23.82v7.94h23.82v3.97h3.97v7.94h-3.97v3.97h-47.65v-3.97h-3.97v-47.65h3.97v7.94h3.97v-3.97h3.97v-3.97h-7.94v-3.97h47.65v3.97Z"/>
      <path class="cls-5" d="M1077.44,97.59h3.97v39.71h-3.97v3.97h-7.94v-3.97h-3.97v-23.82h-11.91v23.82h-3.97v3.97h-19.85v-3.97h-3.97v-43.68h3.97v3.97h3.97v-3.97h3.97v-3.97h-3.97v-3.97h35.73v3.97h3.97v3.97h3.97v3.97ZM1053.61,105.53h11.91v-7.94h-11.91v7.94Z"/>
      <path class="cls-5" d="M1152.21,89.65h3.97v47.65h-3.97v3.97h-11.91v-3.97h-3.97v-11.91h-3.97v3.97h-3.97v-3.97h-3.97v11.91h-3.97v3.97h-19.85v-3.97h-3.97v-47.65h3.97v7.94h3.97v-3.97h3.97v-3.97h-7.94v-3.97h19.85v3.97h3.97v15.88h3.97v3.97h3.97v-3.97h3.97v-15.88h3.97v-3.97h11.91v3.97Z"/>
    </g>
  </g>
</svg>